<?xml version="1.0" encoding="iso-8859-1"?>
<!-- Generator: Adobe Illustrator 19.0.0, SVG Export Plug-In . SVG Version: 6.00 Build 0)  -->
<svg version="1.1" id="Capa_1" xmlns="http://www.w3.org/2000/svg" xmlns:xlink="http://www.w3.org/1999/xlink" x="0px" y="0px"
	 viewBox="0 0 512 512" style="enable-background:new 0 0 512 512;" xml:space="preserve">
<path style="fill:#ECF0F1;" d="M475.733,503.467H36.267c-15.317,0-27.733-12.416-27.733-27.733v-364.8h494.933v364.8
	C503.467,491.051,491.051,503.467,475.733,503.467z"/>
<path style="fill:#687492;" d="M503.467,110.933H8.533V36.267c0-15.317,12.416-27.733,27.733-27.733h439.467
	c15.317,0,27.733,12.416,27.733,27.733V110.933z"/>
<rect x="42.667" y="42.667" style="fill:#E64C3C;" width="34.133" height="34.133"/>
<rect x="110.933" y="42.667" style="fill:#F0C419;" width="34.133" height="34.133"/>
<rect x="179.2" y="42.667" style="fill:#24AE5F;" width="34.133" height="34.133"/>
<g>
	<rect x="247.467" y="110.933" style="fill:#BDC3C7;" width="17.067" height="392.533"/>
	<path style="fill:#BDC3C7;" d="M196.267,179.2H51.2c-4.71,0-8.533-3.814-8.533-8.533c0-4.719,3.823-8.533,8.533-8.533h145.067
		c4.71,0,8.533,3.814,8.533,8.533C204.8,175.386,200.977,179.2,196.267,179.2z"/>
	<path style="fill:#BDC3C7;" d="M213.333,213.333H51.2c-4.71,0-8.533-3.814-8.533-8.533c0-4.719,3.823-8.533,8.533-8.533h162.133
		c4.71,0,8.533,3.814,8.533,8.533C221.867,209.519,218.044,213.333,213.333,213.333z"/>
	<path style="fill:#BDC3C7;" d="M213.333,247.467H51.2c-4.71,0-8.533-3.814-8.533-8.533c0-4.719,3.823-8.533,8.533-8.533h162.133
		c4.71,0,8.533,3.814,8.533,8.533C221.867,243.652,218.044,247.467,213.333,247.467z"/>
	<path style="fill:#BDC3C7;" d="M213.333,281.6H51.2c-4.71,0-8.533-3.814-8.533-8.533s3.823-8.533,8.533-8.533h162.133
		c4.71,0,8.533,3.814,8.533,8.533S218.044,281.6,213.333,281.6z"/>
	<path style="fill:#BDC3C7;" d="M213.333,315.733H51.2c-4.71,0-8.533-3.814-8.533-8.533c0-4.719,3.823-8.533,8.533-8.533h162.133
		c4.71,0,8.533,3.814,8.533,8.533C221.867,311.919,218.044,315.733,213.333,315.733z"/>
	<path style="fill:#BDC3C7;" d="M213.333,349.867H51.2c-4.71,0-8.533-3.814-8.533-8.533c0-4.719,3.823-8.533,8.533-8.533h162.133
		c4.71,0,8.533,3.814,8.533,8.533C221.867,346.052,218.044,349.867,213.333,349.867z"/>
	<path style="fill:#BDC3C7;" d="M213.333,384H51.2c-4.71,0-8.533-3.814-8.533-8.533c0-4.719,3.823-8.533,8.533-8.533h162.133
		c4.71,0,8.533,3.814,8.533,8.533C221.867,380.186,218.044,384,213.333,384z"/>
	<path style="fill:#BDC3C7;" d="M213.333,418.133H51.2c-4.71,0-8.533-3.814-8.533-8.533c0-4.719,3.823-8.533,8.533-8.533h162.133
		c4.71,0,8.533,3.814,8.533,8.533C221.867,414.319,218.044,418.133,213.333,418.133z"/>
	<path style="fill:#BDC3C7;" d="M213.333,452.267H51.2c-4.71,0-8.533-3.814-8.533-8.533c0-4.719,3.823-8.533,8.533-8.533h162.133
		c4.71,0,8.533,3.814,8.533,8.533C221.867,448.452,218.044,452.267,213.333,452.267z"/>
	<path style="fill:#BDC3C7;" d="M443.733,179.2H298.667c-4.71,0-8.533-3.814-8.533-8.533c0-4.719,3.823-8.533,8.533-8.533h145.067
		c4.71,0,8.533,3.814,8.533,8.533C452.267,175.386,448.444,179.2,443.733,179.2z"/>
	<path style="fill:#BDC3C7;" d="M460.8,213.333H298.667c-4.71,0-8.533-3.814-8.533-8.533c0-4.719,3.823-8.533,8.533-8.533H460.8
		c4.71,0,8.533,3.814,8.533,8.533C469.333,209.519,465.51,213.333,460.8,213.333z"/>
	<path style="fill:#BDC3C7;" d="M460.8,247.467H298.667c-4.71,0-8.533-3.814-8.533-8.533c0-4.719,3.823-8.533,8.533-8.533H460.8
		c4.71,0,8.533,3.814,8.533,8.533C469.333,243.652,465.51,247.467,460.8,247.467z"/>
	<path style="fill:#BDC3C7;" d="M460.8,281.6H298.667c-4.71,0-8.533-3.814-8.533-8.533s3.823-8.533,8.533-8.533H460.8
		c4.71,0,8.533,3.814,8.533,8.533S465.51,281.6,460.8,281.6z"/>
	<path style="fill:#BDC3C7;" d="M460.8,315.733H298.667c-4.71,0-8.533-3.814-8.533-8.533c0-4.719,3.823-8.533,8.533-8.533H460.8
		c4.71,0,8.533,3.814,8.533,8.533C469.333,311.919,465.51,315.733,460.8,315.733z"/>
	<path style="fill:#BDC3C7;" d="M460.8,349.867H298.667c-4.71,0-8.533-3.814-8.533-8.533c0-4.719,3.823-8.533,8.533-8.533H460.8
		c4.71,0,8.533,3.814,8.533,8.533C469.333,346.052,465.51,349.867,460.8,349.867z"/>
	<path style="fill:#BDC3C7;" d="M460.8,384H298.667c-4.71,0-8.533-3.814-8.533-8.533c0-4.719,3.823-8.533,8.533-8.533H460.8
		c4.71,0,8.533,3.814,8.533,8.533C469.333,380.186,465.51,384,460.8,384z"/>
	<path style="fill:#BDC3C7;" d="M460.8,418.133H298.667c-4.71,0-8.533-3.814-8.533-8.533c0-4.719,3.823-8.533,8.533-8.533H460.8
		c4.71,0,8.533,3.814,8.533,8.533C469.333,414.319,465.51,418.133,460.8,418.133z"/>
	<path style="fill:#BDC3C7;" d="M460.8,452.267H298.667c-4.71,0-8.533-3.814-8.533-8.533c0-4.719,3.823-8.533,8.533-8.533H460.8
		c4.71,0,8.533,3.814,8.533,8.533C469.333,448.452,465.51,452.267,460.8,452.267z"/>
</g>
<g>
	<path style="fill:#611C90;" d="M473.6,512H38.4C17.229,512,0,494.771,0,473.6V38.4C0,17.229,17.229,0,38.4,0h435.2
		C494.771,0,512,17.229,512,38.4v435.2C512,494.771,494.771,512,473.6,512z M38.4,17.067c-11.759,0-21.333,9.574-21.333,21.333
		v435.2c0,11.767,9.574,21.333,21.333,21.333h435.2c11.767,0,21.333-9.566,21.333-21.333V38.4c0-11.759-9.566-21.333-21.333-21.333
		H38.4z"/>
	<path style="fill:#611C90;" d="M76.8,85.333H42.667c-4.71,0-8.533-3.823-8.533-8.533V42.667c0-4.71,3.823-8.533,8.533-8.533H76.8
		c4.71,0,8.533,3.823,8.533,8.533V76.8C85.333,81.51,81.51,85.333,76.8,85.333z M51.2,68.267h17.067V51.2H51.2V68.267z"/>
	<path style="fill:#611C90;" d="M145.067,85.333h-34.133c-4.71,0-8.533-3.823-8.533-8.533V42.667c0-4.71,3.823-8.533,8.533-8.533
		h34.133c4.71,0,8.533,3.823,8.533,8.533V76.8C153.6,81.51,149.777,85.333,145.067,85.333z M119.467,68.267h17.067V51.2h-17.067
		V68.267z"/>
	<path style="fill:#611C90;" d="M213.333,85.333H179.2c-4.71,0-8.533-3.823-8.533-8.533V42.667c0-4.71,3.823-8.533,8.533-8.533
		h34.133c4.71,0,8.533,3.823,8.533,8.533V76.8C221.867,81.51,218.044,85.333,213.333,85.333z M187.733,68.267H204.8V51.2h-17.067
		V68.267z"/>
	<path style="fill:#611C90;" d="M503.467,119.467H8.533c-4.71,0-8.533-3.823-8.533-8.533V38.4C0,17.229,17.229,0,38.4,0h435.2
		C494.771,0,512,17.229,512,38.4v72.533C512,115.644,508.186,119.467,503.467,119.467z M17.067,102.4h477.867v-64
		c0-11.759-9.566-21.333-21.333-21.333H38.4c-11.759,0-21.333,9.574-21.333,21.333V102.4z"/>
	<path style="fill:#611C90;" d="M475.238,512H256c-4.71,0-8.533-3.814-8.533-8.533V110.933c0-4.71,3.823-8.533,8.533-8.533h247.467
		c4.719,0,8.533,3.823,8.533,8.533v364.305C512,495.505,495.505,512,475.238,512z M264.533,494.933h210.705
		c10.863,0,19.695-8.832,19.695-19.695V119.467h-230.4V494.933z"/>
	<path style="fill:#611C90;" d="M196.267,179.2H51.2c-4.71,0-8.533-3.823-8.533-8.533s3.823-8.533,8.533-8.533h145.067
		c4.71,0,8.533,3.823,8.533,8.533S200.977,179.2,196.267,179.2z"/>
	<path style="fill:#611C90;" d="M213.333,213.333H51.2c-4.71,0-8.533-3.823-8.533-8.533c0-4.71,3.823-8.533,8.533-8.533h162.133
		c4.71,0,8.533,3.823,8.533,8.533C221.867,209.51,218.044,213.333,213.333,213.333z"/>
	<path style="fill:#611C90;" d="M213.333,247.467H51.2c-4.71,0-8.533-3.823-8.533-8.533S46.49,230.4,51.2,230.4h162.133
		c4.71,0,8.533,3.823,8.533,8.533S218.044,247.467,213.333,247.467z"/>
	<path style="fill:#611C90;" d="M213.333,281.6H51.2c-4.71,0-8.533-3.814-8.533-8.533s3.823-8.533,8.533-8.533h162.133
		c4.71,0,8.533,3.814,8.533,8.533S218.044,281.6,213.333,281.6z"/>
	<path style="fill:#611C90;" d="M213.333,315.733H51.2c-4.71,0-8.533-3.814-8.533-8.533c0-4.719,3.823-8.533,8.533-8.533h162.133
		c4.71,0,8.533,3.814,8.533,8.533C221.867,311.919,218.044,315.733,213.333,315.733z"/>
	<path style="fill:#611C90;" d="M213.333,349.867H51.2c-4.71,0-8.533-3.814-8.533-8.533c0-4.719,3.823-8.533,8.533-8.533h162.133
		c4.71,0,8.533,3.814,8.533,8.533C221.867,346.052,218.044,349.867,213.333,349.867z"/>
	<path style="fill:#611C90;" d="M213.333,384H51.2c-4.71,0-8.533-3.814-8.533-8.533c0-4.719,3.823-8.533,8.533-8.533h162.133
		c4.71,0,8.533,3.814,8.533,8.533C221.867,380.186,218.044,384,213.333,384z"/>
	<path style="fill:#611C90;" d="M213.333,418.133H51.2c-4.71,0-8.533-3.814-8.533-8.533c0-4.719,3.823-8.533,8.533-8.533h162.133
		c4.71,0,8.533,3.814,8.533,8.533C221.867,414.319,218.044,418.133,213.333,418.133z"/>
	<path style="fill:#611C90;" d="M213.333,452.267H51.2c-4.71,0-8.533-3.814-8.533-8.533c0-4.719,3.823-8.533,8.533-8.533h162.133
		c4.71,0,8.533,3.814,8.533,8.533C221.867,448.452,218.044,452.267,213.333,452.267z"/>
	<path style="fill:#611C90;" d="M443.733,179.2H298.667c-4.719,0-8.533-3.823-8.533-8.533s3.814-8.533,8.533-8.533h145.067
		c4.719,0,8.533,3.823,8.533,8.533S448.452,179.2,443.733,179.2z"/>
	<path style="fill:#611C90;" d="M460.8,213.333H298.667c-4.719,0-8.533-3.823-8.533-8.533c0-4.71,3.814-8.533,8.533-8.533H460.8
		c4.719,0,8.533,3.823,8.533,8.533C469.333,209.51,465.519,213.333,460.8,213.333z"/>
	<path style="fill:#611C90;" d="M460.8,247.467H298.667c-4.719,0-8.533-3.823-8.533-8.533s3.814-8.533,8.533-8.533H460.8
		c4.719,0,8.533,3.823,8.533,8.533S465.519,247.467,460.8,247.467z"/>
	<path style="fill:#611C90;" d="M460.8,281.6H298.667c-4.719,0-8.533-3.814-8.533-8.533s3.814-8.533,8.533-8.533H460.8
		c4.719,0,8.533,3.814,8.533,8.533S465.519,281.6,460.8,281.6z"/>
	<path style="fill:#611C90;" d="M460.8,315.733H298.667c-4.719,0-8.533-3.814-8.533-8.533c0-4.719,3.814-8.533,8.533-8.533H460.8
		c4.719,0,8.533,3.814,8.533,8.533C469.333,311.919,465.519,315.733,460.8,315.733z"/>
	<path style="fill:#611C90;" d="M460.8,349.867H298.667c-4.719,0-8.533-3.814-8.533-8.533c0-4.719,3.814-8.533,8.533-8.533H460.8
		c4.719,0,8.533,3.814,8.533,8.533C469.333,346.052,465.519,349.867,460.8,349.867z"/>
	<path style="fill:#611C90;" d="M460.8,384H298.667c-4.719,0-8.533-3.814-8.533-8.533c0-4.719,3.814-8.533,8.533-8.533H460.8
		c4.719,0,8.533,3.814,8.533,8.533C469.333,380.186,465.519,384,460.8,384z"/>
	<path style="fill:#611C90;" d="M460.8,418.133H298.667c-4.719,0-8.533-3.814-8.533-8.533c0-4.719,3.814-8.533,8.533-8.533H460.8
		c4.719,0,8.533,3.814,8.533,8.533C469.333,414.319,465.519,418.133,460.8,418.133z"/>
	<path style="fill:#611C90;" d="M460.8,452.267H298.667c-4.719,0-8.533-3.814-8.533-8.533c0-4.719,3.814-8.533,8.533-8.533H460.8
		c4.719,0,8.533,3.814,8.533,8.533C469.333,448.452,465.519,452.267,460.8,452.267z"/>
</g>
<g>
</g>
<g>
</g>
<g>
</g>
<g>
</g>
<g>
</g>
<g>
</g>
<g>
</g>
<g>
</g>
<g>
</g>
<g>
</g>
<g>
</g>
<g>
</g>
<g>
</g>
<g>
</g>
<g>
</g>
</svg>
