<svg height="476pt" viewBox="0 -15 476.8 476" width="476pt" xmlns="http://www.w3.org/2000/svg"><path d="m388.046875 271.265625-58.238281-51.886719-.011719-.011718-.0625-.054688c-.050781-.046875-.105469-.085938-.160156-.128906-.121094-.101563-.242188-.203125-.367188-.296875-.070312-.050781-.144531-.097657-.214843-.144531-.121094-.082032-.238282-.164063-.363282-.234376-.089844-.054687-.179687-.101562-.269531-.144531-.113281-.058593-.21875-.121093-.332031-.171875-.113282-.054687-.214844-.089844-.324219-.132812-.109375-.042969-.199219-.085938-.300781-.121094-.117188-.042969-.238282-.074219-.359375-.109375-.097657-.027344-.191407-.058594-.289063-.082031-.121094-.03125-.242187-.054688-.367187-.074219-.101563-.019531-.199219-.042969-.300781-.054687-.117188-.019532-.234376-.027344-.355469-.039063-.117188-.011719-.210938-.023437-.320313-.027344-.105468-.003906-.214844 0-.324218 0-.109376 0-.234376 0-.351563 0-.101563 0-.199219.015625-.300781.027344-.125.011719-.25.019531-.378906.039063-.089844.011718-.179688.03125-.269532.050781-.132812.023437-.261718.046875-.394531.078125-.085937.023437-.171875.050781-.261719.074218-.128906.039063-.257812.074219-.382812.117188-.09375.035156-.183594.074219-.277344.109375-.117188.046875-.234375.09375-.347656.148437-.113282.050782-.199219.097657-.308594.15625-.105469.058594-.199219.101563-.296875.160157-.117187.066406-.226563.144531-.339844.21875-.078125.054687-.160156.097656-.238281.160156-.117188.085937-.226562.179687-.339844.273437-.0625.050782-.125.097657-.1875.148438l-58.308594 51.953125c-2.839843 2.582031-3.066406 6.96875-.515624 9.832031 2.550781 2.867188 6.9375 3.140625 9.828124.621094l53.652344-47.800781 53.65625 47.800781c1.863282 1.691406 4.492188 2.257812 6.886719 1.472656 2.390625-.78125 4.179687-2.789062 4.683594-5.257812.5-2.46875-.359375-5.015625-2.257813-6.667969zm0 0" fill="#f4b844"/><path d="m476.800781 402.261719v44.957031h-95.011719v-44.957031c.003907-12.644531 10.25-22.890625 22.890626-22.902344 5.75 7.839844 14.890624 12.46875 24.609374 12.46875 9.722657 0 18.863282-4.628906 24.609376-12.46875 12.648437.003906 22.898437 10.253906 22.902343 22.902344zm0 0" fill="#00acea"/><path d="m467.140625 1.558594v48.0625h-283.761719v-48.0625zm0 0" fill="#00efd1"/><path d="m448.761719 49.621094v150.1875c0 11.710937-9.492188 21.203125-21.203125 21.203125h-204.957032c-11.710937 0-21.203124-9.492188-21.203124-21.203125v-150.1875zm0 0" fill="#fedb41"/><g fill="#00acea"><path d="m429.289062 318.191406c14.054688-.003906 25.449219 11.386719 25.449219 25.4375.003907 14.054688-11.386719 25.449219-25.4375 25.449219-14.054687.003906-25.449219-11.386719-25.449219-25.4375-.003906-14.054687 11.386719-25.449219 25.4375-25.449219zm0 0"/><path d="m362.121094 402.261719v44.957031h-95.011719v-44.957031c.003906-12.648438 10.253906-22.898438 22.902344-22.902344 5.746093 7.835937 14.882812 12.46875 24.601562 12.46875 9.722657 0 18.859375-4.632813 24.605469-12.46875 12.648438.003906 22.894531 10.253906 22.902344 22.902344zm0 0"/><path d="m314.609375 318.191406c14.054687-.003906 25.449219 11.386719 25.449219 25.4375.003906 14.054688-11.386719 25.449219-25.4375 25.449219-14.054688.003906-25.449219-11.386719-25.449219-25.4375-.003906-14.054687 11.386719-25.449219 25.4375-25.449219zm0 0"/><path d="m247.441406 402.261719v44.957031h-95.011718v-44.957031c.003906-12.648438 10.253906-22.898438 22.898437-22.902344 5.75 7.835937 14.886719 12.46875 24.605469 12.46875s18.859375-4.632813 24.605468-12.46875c12.644532.003906 22.894532 10.253906 22.902344 22.902344zm0 0"/><path d="m199.941406 318.191406c14.050782 0 25.441406 11.394532 25.4375 25.445313 0 14.050781-11.390625 25.441406-25.441406 25.441406-14.050781.003906-25.445312-11.386719-25.449219-25.4375-.003906-14.058594 11.394531-25.453125 25.453125-25.449219zm0 0"/><path d="m36.75 222h-.621094v7.828125c0 9.933594-7.839844 18.363281-17.769531 18.480469h-.199219c-9.929687.003906-17.980468-8.039063-17.980468-17.96875v-100.179688c-.1210942-1.136718-.179688-2.277344-.179688-3.421875.00390625-18.699219 15.167969-33.855469 33.871094-33.847656h18.207031l28.871094 28.078125 29.929687-28.078125h17.160156c1.140626-.003906 2.277344.050781 3.410157.167969 18.609375 1.878906 32.164062 18.496094 30.269531 37.101562v100.160156c0 9.933594-8.054688 17.988282-17.988281 17.988282-9.9375 0-17.992188-8.054688-17.992188-17.988282v-22.128906l-.410156 13.808594zm0 0"/></g><path d="m81.039062 400.621094c-.015624 10.613281-8.523437 19.265625-19.136718 19.460937-10.613282.191407-19.429688-8.144531-19.832032-18.753906l-5.320312-179.328125h88.578125l-5.328125 179.328125c-.371094 10.628906-9.195312 18.996094-19.828125 18.800781-10.632813-.191406-19.144531-8.875-19.132813-19.507812zm0 0" fill="#f4b844"/><path d="m112.398438 32.988281v13.042969c0 17.996094-14.589844 32.589844-32.589844 32.589844-17.996094 0-32.589844-14.59375-32.589844-32.589844v-13.042969c0-17.996093 14.59375-32.589843 32.589844-32.589843 18 0 32.589844 14.59375 32.589844 32.589843zm0 0" fill="#00acea"/><path d="m369.398438 111.808594h-129c-3.863282 0-7-3.132813-7-7 0-3.863282 3.136718-7 7-7h129c3.867187 0 7 3.136718 7 7 0 3.867187-3.132813 7-7 7zm0 0" fill="#00acea"/><path d="m410.398438 139.808594h-170c-3.863282 0-7-3.132813-7-7 0-3.863282 3.136718-7 7-7h170c3.867187 0 7 3.136718 7 7 0 3.867187-3.132813 7-7 7zm0 0" fill="#00acea"/><path d="m410.398438 166.808594h-170c-3.863282 0-7-3.132813-7-7 0-3.863282 3.136718-7 7-7h170c3.867187 0 7 3.136718 7 7 0 3.867187-3.132813 7-7 7zm0 0" fill="#00acea"/></svg>