<svg height="424.50004pt" viewBox="0 0 424.50004 424.50004" width="424.50004pt" xmlns="http://www.w3.org/2000/svg"><path d="m377.75 46.75c13.710938 13.703125 20.394531 32.925781 18.140625 52.179688l-12.941406 110.839843c-.859375 7.355469-4.175781 14.203125-9.410157 19.441407l-185.660156 185.660156c-12.839844 12.839844-33.65625 12.839844-46.5 0l-131.75-131.75c-12.839844-12.84375-12.839844-33.660156 0-46.5l185.660156-185.660156c5.238282-5.234376 12.085938-8.550782 19.441407-9.410157l110.839843-12.941406c19.25-2.25 38.476563 4.433594 52.179688 18.140625zm-58.121094 116.25c16.050782-16.050781 16.046875-42.074219-.003906-58.121094-16.050781-16.050781-42.070312-16.050781-58.121094 0-16.050781 16.046875-16.050781 42.070313-.003906 58.121094 16.054688 16.050781 42.078125 16.050781 58.128906 0zm0 0" fill="#00efd1"/><path d="m331.667969 133.933594c0 22.703125-18.402344 41.105468-41.101563 41.105468-22.703125 0-41.105468-18.402343-41.105468-41.105468 0-22.699219 18.402343-41.101563 41.105468-41.101563 22.699219 0 41.101563 18.402344 41.101563 41.101563zm0 0" fill="#00acea"/><path d="m319.917969 112.582031c-3.234375 0-6.152344-1.949219-7.390625-4.941406-1.238282-2.988281-.550782-6.429687 1.734375-8.71875l96.582031-96.578125c3.125-3.125 8.1875-3.125 11.3125 0s3.125 8.1875 0 11.3125l-96.578125 96.582031c-1.5 1.5-3.535156 2.34375-5.660156 2.34375zm0 0" fill="#00acea"/><g fill="#f4b844"><path d="m173.167969 174.964844c-3.125-3.125-8.191407-3.128906-11.316407-.003906s-3.125 8.191406 0 11.316406l76.367188 76.371094c3.125 3.121093 8.191406 3.121093 11.316406 0 3.121094-3.125 3.121094-8.191407 0-11.316407zm0 0"/><path d="m209.941406 290.925781c3.125 3.125 8.191406 3.125 11.316406 0 3.125-3.121093 3.125-8.1875 0-11.3125l-76.371093-76.371093c-3.125-3.125-8.1875-3.125-11.3125 0s-3.125 8.191406 0 11.316406zm0 0"/><path d="m192.96875 307.894531-76.363281-76.359375c-3.125-3.125-8.191407-3.125-11.3125 0-3.125 3.125-3.125 8.191406 0 11.316406l76.359375 76.359376c3.125 3.125 8.1875 3.125 11.3125 0s3.125-8.191407.003906-11.316407zm0 0"/><path d="m153.371094 347.496094c3.125 3.125 8.191406 3.125 11.316406 0 3.125-3.121094 3.125-8.1875 0-11.3125l-76.371094-76.371094c-3.125-3.125-8.1875-3.125-11.3125 0s-3.125 8.191406 0 11.316406zm0 0"/></g></svg>