<?xml version="1.0" encoding="iso-8859-1"?>
<!-- Generator: Adobe Illustrator 19.0.0, SVG Export Plug-In . SVG Version: 6.00 Build 0)  -->
<svg version="1.1" id="Capa_1" xmlns="http://www.w3.org/2000/svg" xmlns:xlink="http://www.w3.org/1999/xlink" x="0px" y="0px"
	 viewBox="0 0 511.999 511.999" style="enable-background:new 0 0 511.999 511.999;" xml:space="preserve">
<circle style="fill:#34ABE0;" cx="255.999" cy="255.999" r="255.999"/>
<path style="fill:#F9EED7;" d="M458.964,30.698v381.345c-46.801,60.782-120.309,99.955-202.961,99.955
	c-52.715,0-101.7-15.935-142.419-43.248c-5.078-3.396-10.031-6.98-14.848-10.742c-17.094-13.322-32.465-28.776-45.693-45.965V30.698
	H458.964z"/>
<g>
	<rect x="231.956" y="167.445" style="fill:#5C5E70;" width="181.3" height="18.807"/>
	<path style="fill:#5C5E70;" d="M98.736,128.657v96.392h96.392v-96.392H98.736z M176.32,206.24h-58.775v-58.775h58.775V206.24z"/>
	<rect x="231.956" y="289.3" style="fill:#5C5E70;" width="181.3" height="18.807"/>
	<path style="fill:#5C5E70;" d="M98.736,250.513v96.392h96.392v-96.392H98.736z M176.32,328.096h-58.775v-58.775h58.775V328.096z"/>
	<rect x="231.956" y="411.156" style="fill:#5C5E70;" width="181.3" height="18.807"/>
	<path style="fill:#5C5E70;" d="M98.736,372.368v85.64c4.817,3.762,9.77,7.346,14.848,10.742h81.544v-96.381H98.736z
		 M176.32,449.942h-58.775v-58.765h58.775V449.942z"/>
</g>
<polygon style="fill:#FF525D;" points="141.762,342.713 104.521,258.809 116.937,253.298 143.647,313.479 199.593,221.518 
	211.197,228.578 "/>
<g>
</g>
<g>
</g>
<g>
</g>
<g>
</g>
<g>
</g>
<g>
</g>
<g>
</g>
<g>
</g>
<g>
</g>
<g>
</g>
<g>
</g>
<g>
</g>
<g>
</g>
<g>
</g>
<g>
</g>
</svg>
