<?xml version="1.0" encoding="UTF-8"?>
<svg xmlns="http://www.w3.org/2000/svg" xmlns:xlink="http://www.w3.org/1999/xlink" width="512" height="512" viewBox="0 0 60 59" version="1.1"><!-- Generator: Sketch 49.3 (51167) - http://www.bohemiancoding.com/sketch --><title>026 - Clone Drive</title><desc>Created with Sketch.</desc><defs/><g id="Page-1" stroke="none" stroke-width="1" fill="none" fill-rule="evenodd"><g id="026---Clone-Drive" fill-rule="nonzero"><g id="Colours" transform="translate(0.000000, 1.000000)"><rect id="Rectangle-path" fill="#A4C2F7" x="23" y="6" width="36" height="34"/><rect id="Rectangle-path" fill="#E3E7F2" x="23" y="6" width="32" height="34"/><path d="M37,14 L37,55 C37,55.5522847 36.5522847,56 36,56 L2,56 C1.44838544,55.9983854 1.00161464,55.5516146 1,55 L1,14 L37,14 Z" id="Shape" fill="#A4C2F7"/><path d="M33,14 L33,55 C33.0288349,55.5209599 32.6318577,55.9675586 32.11111,56 L1.88889,56 C1.36886579,55.9660757 0.97272267,55.5204152 1,55 L1,14 L33,14 Z" id="Shape" fill="#E3E7F2"/><path d="M36.9999997,11.9999999 L36.9999998,15.9999998 L0.99999984,15.9999998 L1,11.9999999 C0.999700152,10.9390421 1.42103122,9.92145223 2.17124174,9.17124172 C2.92145225,8.42103122 3.93904212,7.99970015 4.99999996,8 L32.9999997,8 C34.0609576,7.99970015 35.0785474,8.42103122 35.8287579,9.17124172 C36.5789685,9.92145223 37.0002995,10.9390421 36.9999997,11.9999999 Z" id="Shape" fill="#A4C2F7"/><path d="M33,12 L33,16 L1,16 L1,12 C0.88405251,9.91594841 2.47228718,8.12918664 4.55556,8 L29.44444,8 C31.5277128,8.12918664 33.1159475,9.91594841 33,12 Z" id="Shape" fill="#E3E7F2"/><path d="M58.9999997,3.99999992 L58.9999998,7.99999984 L22.9999998,7.99999984 L23,3.99999992 C22.9997002,2.93904209 23.4210312,1.92145223 24.1712417,1.17124172 C24.9214523,0.421031215 25.9390421,-0.000299847666 27,-4.01340185e-15 L54.9999997,-4.01340185e-15 C56.0609576,-0.000299847666 57.0785474,0.421031215 57.8287579,1.17124172 C58.5789685,1.92145223 59.0002995,2.93904209 58.9999997,3.99999992 Z" id="Shape" fill="#A4C2F7"/><path d="M55,4 L55,8 L23,8 L23,4 C22.8840525,1.91594841 24.4722872,0.129186644 26.55556,-4.4408921e-16 L51.44444,-4.4408921e-16 C53.5277128,0.129186644 55.1159475,1.91594841 55,4 Z" id="Shape" fill="#E3E7F2"/><path d="M53,24 C53.0020797,25.1477939 52.8370147,26.2897743 52.51,27.39 C52.0213578,27.0081056 51.5067869,26.6606032 50.97,26.35 C49.1410823,25.2375258 47.1076729,24.5030502 44.99,24.19 C44.9983193,24.1270277 45.001663,24.0634977 45,24 C45.0026948,22.2209028 43.8283018,20.6545302 42.1197706,20.1584302 C40.4112394,19.6623303 38.5805675,20.3561332 37.63,21.86 C37.2185962,22.4979159 36.9998588,23.2409284 37,24 L37,12.69 C38.2834528,12.23062 39.6368151,11.997165 41,12 C44.1828671,11.9991217 47.2356243,13.2631217 49.4862513,15.5137487 C51.7368783,17.7643757 53.0008783,20.8171329 53,24 Z" id="Shape" fill="#A4C2F7"/><path d="M51,25.61 C51,25.86 50.99,26.1 50.97,26.35 C49.1410823,25.2375258 47.1076729,24.5030502 44.99,24.19 C44.9983193,24.1270277 45.001663,24.0634977 45,24 C45.0026948,22.2209028 43.8283018,20.6545302 42.1197706,20.1584302 C40.4112394,19.6623303 38.5805675,20.3561332 37.63,21.86 C37.4094657,21.9319116 37.1980449,22.0292323 37,22.15 L37,13.78 C40.4831686,13.1871111 44.0504988,14.1609403 46.7492819,16.441412 C49.4480649,18.7218837 51.0034323,22.0767339 51,25.61 Z" id="Shape" fill="#E3E7F2"/><path d="M19,28 C16.790861,28 15,29.790861 15,32 C15,34.209139 16.790861,36 19,36 C21.209139,36 23,34.209139 23,32 C23.0002998,30.9390421 22.5789688,29.9214523 21.8287583,29.1712417 C21.0785477,28.4210312 20.0609579,27.9997002 19,28 Z M29.1,25.52 L29.1,25.51 C26.4470666,21.3855608 21.5520289,19.2896381 16.7363797,20.2162324 C11.9207305,21.1428267 8.15297993,24.9055839 7.22,29.72 C7.07064541,30.4707365 6.99694342,31.2345571 7,32 C6.9991217,35.1828671 8.26312173,38.2356243 10.5137487,40.4862513 C12.7643757,42.7368783 15.8171329,44.0008783 19,44 C21.1228828,44.0066644 23.2086919,43.4437722 25.04,42.37 C25.3876674,42.1709234 25.724786,41.9539659 26.05,41.72 C26.01,41.32 26,40.91 26,40.5 C25.9986854,36.9840177 27.1236483,33.5600653 29.21,30.73 C29.6420404,30.1332235 30.1166076,29.5684216 30.63,29.04 C30.3155898,27.7910068 29.7987497,26.6019366 29.1,25.52 Z" id="Shape" fill="#A4C2F7"/><path d="M29.21,30.73 C28.9230566,29.9544686 28.5507693,29.2132478 28.1,28.52 L28.1,28.51 C25.7557099,24.867363 21.6313487,22.7695527 17.3068029,23.020161 C12.9822572,23.2707692 9.12782747,25.8309519 7.22,29.72 C7.07064541,30.4707365 6.99694342,31.2345571 7,32 C6.9991217,35.1828671 8.26312173,38.2356243 10.5137487,40.4862513 C12.7643757,42.7368783 15.8171329,44.0008783 19,44 C21.1228828,44.0066644 23.2086919,43.4437722 25.04,42.37 C25.1644498,40.4459397 25.6317985,38.5596119 26.42,36.8 C27.2034641,35.0378562 28.289924,33.4267817 29.63,32.04 C29.5202806,31.5941976 29.3799477,31.1564926 29.21,30.73 Z" id="Shape" fill="#E3E7F2"/><circle id="Oval" fill="#A4C2F7" cx="19" cy="32" r="4"/><path d="M59,40.5 C59.0045631,47.4706478 54.6268461,53.6916897 48.0639703,56.0408627 C41.5010946,58.3900356 34.1699715,56.360158 29.75,50.97 C28.9939423,50.0559282 28.3431787,49.0596561 27.81,48 C26.8050128,46.0470974 26.2062922,43.9107535 26.05,41.72 C26.01,41.32 26,40.91 26,40.5 C26.0029676,33.5076758 30.4090791,27.2750308 37,24.94 C37.0348079,24.9241307 37.0719549,24.9139997 37.11,24.91 L37.11,24.9 C38.8444479,24.3036563 40.6658966,23.9995182 42.5,24 C43.3337294,23.9970866 44.1663652,24.0606211 44.99,24.19 C53.0439881,25.4262666 58.9927998,32.3516855 59,40.5 Z" id="Shape" fill="#A4C2F7"/><path d="M55,40.5 C55,49.61 48.50574,57 40.5,57 C38.6795079,56.9999707 36.8796095,56.614876 35.21848,55.87 C32.8465171,54.787675 30.8030665,53.0971621 29.29548,50.97 C28.6236951,50.0431157 28.0521998,49.0475377 27.5906,48 C26.7000047,46.0172541 26.1759862,43.8895628 26.04393,41.72 C26.0088,41.32 26,40.91 26,40.5 C25.9613044,36.319528 27.4025708,32.2601116 30.06879,29.04 C31.5738579,27.238751 33.4952646,25.8314741 35.66667,24.94 C35.6968208,24.9242701 35.7295616,24.9141075 35.76332,24.91 L35.76332,24.9 C37.2720933,24.3066183 38.878736,24.0013457 40.5,24 C41.2336291,23.9971715 41.9660081,24.0607643 42.68817,24.19 C45.1442319,24.6259769 47.4315904,25.7335711 49.29668,27.39 C52.9991555,30.7332346 55.0781205,35.5120706 55,40.5 Z" id="Shape" fill="#E3E7F2"/><path d="M45,32 C44.9967543,33.1032223 44.1032223,33.9967543 43,34 L38,34 C37.4483991,34.0016474 37.0016474,34.4483991 37,35 L37,37 L40,37 L35,44 L30,37 L33,37 L33,35 C33.0009989,32.2389901 35.2389901,30.0009989 38,30 L43,30 C44.1032314,30.0032238 44.9967762,30.8967686 45,32 Z" id="Shape" fill="#A4C2F7"/><path d="M55,44 L52,44 L52,46 C51.9990011,48.7610099 49.7610099,50.9990011 47,51 L42,51 C40.8954305,51 40,50.1045695 40,49 C40,47.8954305 40.8954305,47 42,47 L47,47 C47.5516009,46.9983526 47.9983526,46.5516009 48,46 L48,44 L45,44 L50,37 L55,44 Z" id="Shape" fill="#A4C2F7"/></g><g id="White" transform="translate(0.000000, 1.000000)" fill="#FFFFFF"><path d="M7.51,8 C5.4465154,8.15616569 3.88671352,9.93371768 4,12 L4,55 C3.97281799,55.5207935 4.36956945,55.9665817 4.89,56 L1.89,56 C1.36956945,55.9665817 0.972817993,55.5207935 1,55 L1,12 C0.884000086,9.91428054 2.47490597,8.12674584 4.56,8 L7.51,8 Z" id="Shape"/><path d="M29.51,-8.8817842e-16 C27.4465154,0.156165693 25.8867135,1.93371768 26,4 L26,8 L23,8 L23,4 C22.8840001,1.91428054 24.474906,0.126745845 26.56,-8.8817842e-16 L29.51,-8.8817842e-16 Z" id="Shape"/></g><g id="Icons"><polygon id="Shape" fill="#FFFFFF" points="2 17 2 30 2 56 0 56 0 30 0 17"/><path d="M1,26 C1.26470163,25.995996 1.51818849,25.8924591 1.71,25.71 C2.09672008,25.3156867 2.09672008,24.6843933 1.71,24.29008 L1.5601,24.16996 C1.50432178,24.1319755 1.44372787,24.1015979 1.37992,24.07963 C1.3231789,24.0508318 1.26242959,24.0307304 1.19971,24.02 C1.13367967,24.0087447 1.06695098,24.0020622 1,24 C0.735233018,24.0036835 0.481633787,24.1072663 0.29,24.29 C-0.0875531162,24.6880448 -0.0875531162,25.3119552 0.29,25.71 C0.385532731,25.8002924 0.497389252,25.8715624 0.61959,25.92 C0.739939045,25.9712951 0.869184251,25.9984753 1,26 Z" id="Shape" fill="#428DFF"/><path d="M32,12 L31,12 C30.4477153,12 30,12.4477153 30,13 C30,13.5522847 30.4477153,14 31,14 L32,14 C32.5522847,14 33,13.5522847 33,13 C33,12.4477153 32.5522847,12 32,12 Z" id="Shape" fill="#428DFF"/><path d="M5.37988,12.07959 C5.00747919,11.9227307 4.57724891,12.0057901 4.29,12.29 C4.10707993,12.4815131 4.0034659,12.7351888 4,13 C4.00160545,13.1306438 4.02881202,13.2597052 4.08008,13.37988 C4.12844195,13.5022653 4.19971702,13.6142961 4.29008,13.70996 C4.33733228,13.7529223 4.38723364,13.7928775 4.43949,13.82959 C4.49543799,13.867584 4.556195,13.8979609 4.62016,13.91992 C4.67677764,13.9486288 4.7373028,13.9688712 4.7998,13.98 C4.8659626,13.9914939 4.93287116,13.9981781 5,14 C5.40434698,13.9984049 5.76828126,13.7544153 5.92333521,13.3809754 C6.07838917,13.0075356 5.99430271,12.5775256 5.71,12.29 C5.61264975,12.2017006 5.50102638,12.1305548 5.37988,12.07959 Z" id="Shape" fill="#428DFF"/><path d="M8.37988,12.07959 C8.00737926,11.9236938 7.57770013,12.0066467 7.29,12.29 C7.1055012,12.4804858 7.00161944,12.734817 7,13 C7.00355603,13.2647929 7.10715711,13.5184369 7.29,13.71 C7.33725228,13.7529623 7.38715364,13.7929175 7.43941,13.82963 C7.49535799,13.867624 7.556115,13.8980009 7.62008,13.91996 C7.67672491,13.9486623 7.73727746,13.9688914 7.7998,13.98 C7.8659626,13.9914939 7.93287116,13.9981781 8,14 C8.40434698,13.9984049 8.76828126,13.7544153 8.92333521,13.3809754 C9.07838917,13.0075356 8.99430271,12.5775256 8.71,12.29 C8.61264975,12.2017006 8.50102638,12.1305548 8.37988,12.07959 Z" id="Shape" fill="#428DFF"/><path d="M10.29,12.29 C10.1055012,12.4804858 10.0016194,12.734817 10,13 C10,13.5522847 10.4477153,14 11,14 C11.5522847,14 12,13.5522847 12,13 C11.9979326,12.7349066 11.8941162,12.4807355 11.71,12.29 C11.3090423,11.9198228 10.6909577,11.9198228 10.29,12.29 Z" id="Shape" fill="#428DFF"/><path d="M19,28 C16.2385763,28 14,30.2385763 14,33 C14,35.7614237 16.2385763,38 19,38 C21.7614237,38 24,35.7614237 24,33 C23.9967599,30.2399195 21.7600805,28.0032401 19,28 Z M19,36 C17.3431458,36 16,34.6568542 16,33 C16,31.3431458 17.3431458,30 19,30 C20.6568542,30 22,31.3431458 22,33 C21.9981923,34.6561049 20.6561049,35.9981923 19,36 Z" id="Shape" fill="#428DFF"/><path d="M55,0 L27,0 C24.2399195,0.00324014244 22.0032401,2.23991948 22,5 L22,8 L5,8 C2.23991948,8.00324014 0.00324014244,10.2399195 0,13 L0,21 C6.76353751e-17,21.5522847 0.44771525,22 1,22 C1.55228475,22 2,21.5522847 2,21 L2,18 L36,18 L36,25.2655 C34.21179,25.9851343 32.5547218,26.995188 31.0957,28.25488 C30.7996177,27.4904751 30.4307342,26.7563047 29.99414,26.0625 C29.9778772,26.0301796 29.9599498,25.9987241 29.94043,25.96826 C26.1231112,20.0171764 18.2515036,18.2046525 12.2159793,21.8870111 C6.18045493,25.5693697 4.19115624,33.3981716 7.73668756,39.5150766 C11.2822189,45.6319815 19.0642458,47.7970464 25.25943,44.39014 C25.4634263,45.626231 25.8007514,46.8365808 26.2655,48 L10,48 C8.34655664,48.0082058 7.00820583,49.3465566 7,51 C7.00180771,52.6561049 8.34389511,53.9981923 10,54 L28,54 C28.6243953,54.0006764 29.2328399,53.8028355 29.73743,53.43506 C30.6305261,54.3982931 31.6285492,55.2586204 32.71289,56 L2,56 L2,29 C2,28.4477153 1.55228475,28 1,28 C0.44771525,28 6.76353751e-17,28.4477153 0,29 L0,56 C0.00126196688,57.1040464 0.895953647,57.998738 2,58 L36,58 C36.1775393,57.9992736 36.3541809,57.9747622 36.52521,57.92712 C41.8867368,59.8994125 47.8741405,59.1224813 52.5547261,55.8471148 C57.2353117,52.5717483 60.0162977,47.2127613 60,41.5 L60,5 C59.9967599,2.23991948 57.7600805,0.00324014244 55,0 Z M27,2 L55,2 C56.6561049,2.00180771 57.9981923,3.34389511 58,5 L58,8 L24,8 L24,5 C24.0018077,3.34389511 25.3438951,2.00180771 27,2 Z M41,14 C44.2250542,13.984346 47.2929101,15.3915987 49.3848368,17.8461988 C51.4767636,20.300799 52.3798735,23.5529509 51.85315,26.73474 C50.04467,25.5785013 48.0375748,24.7674234 45.93353,24.34259 C45.7144828,22.5794485 44.5679055,21.068672 42.9287143,20.3833239 C41.2895232,19.6979758 39.4088247,19.943044 38,21.02557 L38,14.42529 C38.9751623,14.1437967 39.9850224,14.0006356 41,14 Z M38.04065,24.59766 C38.217995,23.2144446 39.3320573,22.1398765 40.7207705,22.0125515 C42.1094837,21.8852264 43.4003743,22.739295 43.82629,24.0672 C43.387,24.034 42.94769,24 42.5,24 C40.9939593,24.0055431 39.4950007,24.2064395 38.04065,24.59766 Z M2,16 L2,13 C2.00180771,11.3438951 3.34389511,10.0018077 5,10 L33,10 C34.6561049,10.0018077 35.9981923,11.3438951 36,13 L36,16 L2,16 Z M19,44 C13.7401324,43.997288 9.21819608,40.2712831 8.2097395,35.1089939 C7.20128293,29.9467047 9.98853202,24.7928456 14.8606832,22.8108371 C19.7328343,20.8288286 25.3263709,22.5733541 28.208,26.97363 C28.22362,27.00391 28.2412,27.03369 28.25976,27.0625 C28.8058957,27.9133821 29.2296207,28.8368602 29.51848,29.80579 C26.6123656,33.0074897 25.0016846,37.176069 25,41.5 C25,41.7345 25.026,41.9624 25.03522,42.1947 C23.2435173,43.3741563 21.145067,44.0018604 19,44 Z M28,52 L10,52 C9.44794374,51.9994488 9.00055123,51.5520563 9,51 C8.99935768,50.7307002 9.10996272,50.473091 9.30566,50.28809 C9.48831367,50.1016544 9.7390115,49.9976369 10,50 L27.21588,50 C27.584779,50.6527362 27.9951891,51.2811243 28.44458,51.88129 C28.3081761,51.9562525 28.155616,51.9969885 28,52 Z M42.5,57 C33.9395864,57 27,50.0604136 27,41.5 C27,32.9395864 33.9395864,26 42.5,26 C51.0604136,26 58,32.9395864 58,41.5 C57.9904273,50.0564454 51.0564454,56.9904273 42.5,57 Z M53.63965,28.01434 C53.8782104,27.027285 53.9991676,26.0154743 54,25 C53.9918769,17.8236656 48.1763344,12.0081231 41,12 C39.9676162,12.0012605 38.9391252,12.1265891 37.93665,12.37329 C37.8298213,11.5114389 37.4979576,10.6929059 36.97443,10 L58,10 L58,33.40436 C56.918051,31.3365177 55.4358855,29.5043478 53.63965,28.01434 Z" id="Shape" fill="#428DFF"/><path d="M53,6 L54,6 C54.5522847,6 55,5.55228475 55,5 C55,4.44771525 54.5522847,4 54,4 L53,4 C52.4477153,4 52,4.44771525 52,5 C52,5.55228475 52.4477153,6 53,6 Z" id="Shape" fill="#428DFF"/><path d="M26.29,5.71 C26.3372523,5.7529623 26.3871536,5.79291746 26.43941,5.82963 C26.495358,5.86762404 26.556115,5.89800086 26.62008,5.91996 C26.6767249,5.94866232 26.7372775,5.96889142 26.7998,5.98 C26.8660266,5.99101941 26.9329023,5.99770031 27,6 C27.2646826,5.99590305 27.518137,5.89237945 27.71,5.71 C27.7982784,5.61272902 27.8692991,5.50109812 27.92,5.37992 C28.0267735,5.13775021 28.0267735,4.86183979 27.92,4.61967 C27.8692987,4.49861551 27.7982757,4.38711954 27.71,4.29 C27.4705172,4.05402962 27.1292601,3.9527953 26.79984,4.02 C26.7372947,4.03071969 26.6767216,4.05080175 26.62016,4.07957 C26.556195,4.10152914 26.495438,4.13190596 26.43949,4.1699 C26.3872043,4.20677679 26.3372768,4.24688846 26.29,4.29 C26.199544,4.38540509 26.1282528,4.49729493 26.08,4.61959 C25.9732265,4.86175979 25.9732265,5.13767021 26.08,5.37984 C26.1306929,5.50104641 26.2017139,5.61270492 26.29,5.71 Z" id="Shape" fill="#428DFF"/><path d="M30,6 C30.0635676,5.99817417 30.1269024,5.991488 30.18945,5.98 C30.2557552,5.97040215 30.320066,5.95011907 30.37988,5.91994 C30.4413188,5.89988586 30.4988117,5.86932248 30.5498,5.82961 C30.60938,5.79 30.66016,5.75 30.71,5.71 C30.7982784,5.61272902 30.8692991,5.50109812 30.92,5.37992 C30.9712456,5.25972721 30.9984251,5.13065198 31,5 C30.9960862,4.73527995 30.8925364,4.4817615 30.71,4.29 C30.6602,4.25 30.60942,4.20992 30.54984,4.16988 C30.4988517,4.13016752 30.4413588,4.09960414 30.37992,4.07955 C30.3201535,4.04931952 30.2557925,4.0291972 30.18945,4.02 C29.8633744,3.95425997 29.5259964,4.05553978 29.29004,4.29 C29.2445289,4.33887826 29.2042687,4.39239423 29.16992,4.44967 C29.1302715,4.50062331 29.0998644,4.55813413 29.08008,4.61959 C29.0496759,4.67935182 29.029224,4.74367311 29.01953,4.81002 C29.0081736,4.87275438 29.0016445,4.93626723 29,5 C29.003556,5.26479291 29.1071571,5.51843693 29.29,5.71 C29.4806322,5.89427461 29.7348695,5.99811802 30,6 Z" id="Shape" fill="#428DFF"/><path d="M32.62012,5.91992 C32.7387314,5.97598437 32.8688503,6.00341388 33,6 C33.0635676,5.99817417 33.1269024,5.991488 33.18945,5.98 C33.2557552,5.97040215 33.320066,5.95011907 33.37988,5.91994 C33.443531,5.89796392 33.5039619,5.86758538 33.55957,5.82961 C33.60938,5.79 33.66016,5.75 33.71,5.71 C33.8924591,5.51818849 33.995996,5.26470163 34,5 C33.9984448,4.86919239 33.9712375,4.73996106 33.91992,4.61963 C33.869239,4.49859537 33.7982434,4.38711356 33.71,4.29 C33.6624216,4.24686584 33.6121937,4.20674763 33.55961,4.16988 C33.5040019,4.13190462 33.443571,4.10152608 33.37992,4.07955 C33.3201535,4.04931952 33.2557925,4.0291972 33.18945,4.02 C32.9981205,3.9796925 32.798962,4.0005308 32.62012,4.07957 C32.4976405,4.12796634 32.3855771,4.19939943 32.29,4.29 C32.2017319,4.38709545 32.1307093,4.4985638 32.08,4.61959 C32.0287049,4.73993905 32.0015247,4.86918425 32,5 C32.003556,5.26479291 32.1071571,5.51843693 32.29,5.71 C32.3873352,5.79819337 32.4989686,5.86917997 32.62012,5.91992 Z" id="Shape" fill="#428DFF"/><path d="M40.88965,37.54248 C40.7180095,37.2093924 40.3747103,37.0000596 40,37 L38,37 L38,36 L43,36 C44.6568542,36 46,34.6568542 46,33 C46,31.3431458 44.6568542,30 43,30 L38,30 C34.6877925,30.0036209 32.0036209,32.6877925 32,36 L32,37 L30,37 C29.6253369,36.9996996 29.2819784,37.2089849 29.1105612,37.5421345 C28.939144,37.8752842 28.9684671,38.2763272 29.18652,38.581 L34.18652,45.581 C34.3740532,45.8439071 34.6770822,45.9999757 35.00002,45.9999757 C35.3229578,45.9999757 35.6259868,45.8439071 35.81352,45.581 L40.81352,38.581 C41.0312062,38.2763372 41.0605805,37.8756309 40.88965,37.54248 Z M35,43.2793 L31.94336,39 L33,39 C33.2652376,39.000069 33.5196316,38.8947343 33.707183,38.707183 C33.8947343,38.5196316 34.000069,38.2652376 34,38 L34,36 C34.0023534,33.7918366 35.7918366,32.0023534 38,32 L43,32 C43.5522847,32 44,32.4477153 44,33 C44,33.5522847 43.5522847,34 43,34 L38,34 C36.8959536,34.001262 36.001262,34.8959536 36,36 L36,38 C35.999931,38.2652376 36.1052657,38.5196316 36.292817,38.707183 C36.4803684,38.8947343 36.7347624,39.000069 37,39 L38.05664,39 L35,43.2793 Z" id="Shape" fill="#428DFF"/><path d="M49.18652,37.419 L44.18652,44.419 C43.9684671,44.7236728 43.939144,45.1247158 44.1105612,45.4578655 C44.2819784,45.7910151 44.6253369,46.0003004 45,46 L47,46 L47,47 L42,47 C40.3431458,47 39,48.3431458 39,50 C39,51.6568542 40.3431458,53 42,53 L47,53 C50.3122075,52.9963791 52.9963791,50.3122075 53,47 L53,46 L55,46 C55.3746631,46.0003004 55.7180216,45.7910151 55.8894388,45.4578655 C56.060856,45.1247158 56.0315329,44.7236728 55.81348,44.419 L50.81348,37.419 C50.6171308,37.1697174 50.3173245,37.0242233 50,37.0242233 C49.6826755,37.0242233 49.3828692,37.1697174 49.18652,37.419 Z M52,44 C51.7347624,43.999931 51.4803684,44.1052657 51.292817,44.292817 C51.1052657,44.4803684 50.999931,44.7347624 51,45 L51,47 C50.9976466,49.2081634 49.2081634,50.9976466 47,51 L42,51 C41.4477153,51 41,50.5522847 41,50 C41,49.4477153 41.4477153,49 42,49 L47,49 C48.1040464,48.998738 48.998738,48.1040464 49,47 L49,45 C49.000069,44.7347624 48.8947343,44.4803684 48.707183,44.292817 C48.5196316,44.1052657 48.2652376,43.999931 48,44 L46.94336,44 L50,39.7207 L53.05664,44 L52,44 Z" id="Shape" fill="#428DFF"/></g></g></g></svg>
