<?xml version="1.0" standalone="no"?>
<!DOCTYPE svg PUBLIC "-//W3C//DTD SVG 20010904//EN"
 "http://www.w3.org/TR/2001/REC-SVG-20010904/DTD/svg10.dtd">
<svg version="1.0" xmlns="http://www.w3.org/2000/svg"
 width="1893.000000pt" height="1893.000000pt" viewBox="0 0 1893.000000 1893.000000"
 preserveAspectRatio="xMidYMid meet">
<metadata>
Created by potrace 1.11, written by Peter Selinger 2001-2013
</metadata>
<g transform="translate(0.000000,1893.000000) scale(0.100000,-0.100000)"
fill="#000000" stroke="none">
<path d="M16535 15820 c-362 -64 -647 -210 -895 -459 -152 -153 -262 -315
-345 -508 -37 -86 -81 -221 -91 -278 -2 -16 -7 -37 -9 -45 -2 -8 -6 -26 -8
-40 -3 -14 -8 -44 -12 -67 -7 -43 -11 -46 -85 -60 -39 -7 -469 -102 -522 -115
-27 -7 -48 -15 -48 -19 0 -5 25 -111 56 -236 31 -125 57 -236 59 -246 7 -30
36 -141 38 -143 1 -1 58 11 127 27 69 16 139 31 155 34 17 3 85 18 153 34 111
26 124 27 129 12 55 -155 124 -298 196 -406 231 -343 563 -580 953 -680 90
-23 109 -27 232 -43 141 -19 384 -3 552 38 510 122 941 495 1133 980 29 74 75
228 83 280 3 19 7 37 9 40 21 34 26 440 7 530 -6 30 -14 71 -17 90 -28 172
-149 446 -272 619 -228 318 -589 557 -963 639 -143 32 -161 34 -345 37 -129 2
-194 -2 -270 -15z m489 -665 c384 -97 666 -406 729 -797 50 -314 -53 -625
-285 -851 -146 -143 -324 -234 -521 -267 -72 -11 -229 -15 -287 -6 -276 43
-505 180 -666 399 -197 267 -242 645 -112 947 54 128 115 217 213 316 154 156
360 259 558 280 29 3 53 7 55 9 1 1 51 1 110 -1 72 -2 140 -12 206 -29z"/>
<path d="M8459 14856 c-2 -2 -38 -7 -79 -10 -279 -26 -575 -117 -840 -258 -66
-35 -297 -182 -310 -197 -3 -4 -30 -26 -60 -51 -291 -235 -540 -577 -679 -933
-36 -92 -85 -246 -95 -301 -2 -11 -9 -41 -14 -66 -14 -62 -22 -110 -38 -235
-10 -80 -11 -322 -2 -425 23 -259 86 -504 194 -746 l45 -101 -44 -89 c-75
-150 -123 -320 -142 -499 -4 -33 -9 -62 -11 -64 -3 -3 -105 -6 -227 -8 -122
-2 -336 -4 -474 -6 -139 -2 -256 -7 -260 -11 -4 -3 -5 -55 -4 -114 2 -59 5
-144 6 -189 1 -46 5 -86 8 -90 7 -6 242 -6 750 2 189 3 247 1 248 -8 4 -73
113 -325 189 -438 85 -127 180 -232 277 -306 l72 -55 -29 -52 c-16 -28 -93
-171 -173 -317 l-144 -267 180 -92 c98 -51 182 -88 187 -84 4 5 29 49 56 99
26 49 56 106 67 125 11 19 34 62 52 95 18 33 49 92 70 130 21 39 50 92 64 118
20 38 30 47 46 44 11 -3 65 -16 120 -30 132 -34 194 -41 350 -41 238 0 406 37
620 139 76 36 207 115 225 135 3 3 21 17 41 32 173 128 361 388 444 611 10 27
23 50 29 52 291 85 563 214 769 365 l82 61 45 -49 c50 -55 81 -89 190 -212 68
-77 97 -109 172 -192 14 -15 56 -62 94 -105 83 -94 157 -176 200 -223 17 -19
91 -102 165 -185 74 -82 143 -160 155 -173 l21 -24 79 73 c43 40 86 79 95 88
9 9 65 61 125 116 150 139 174 162 174 170 0 5 -143 168 -180 205 -3 3 -39 43
-80 90 -41 47 -81 92 -90 101 -8 8 -42 46 -75 84 -33 37 -65 73 -70 79 -18 20
-207 231 -234 261 -176 199 -281 315 -303 337 l-27 27 34 52 c19 28 35 53 35
55 0 2 16 29 36 60 130 203 262 568 290 799 4 28 8 53 10 56 13 23 22 289 13
428 l-4 65 80 17 c44 9 134 29 200 43 66 15 129 29 140 32 11 2 29 6 40 8 11
2 50 11 86 20 37 8 79 17 93 20 14 3 34 7 44 10 9 3 28 7 42 10 14 3 68 14
120 26 108 25 125 28 160 35 14 3 40 9 58 14 35 11 37 11 52 11 10 0 7 41 -6
82 -3 9 -6 25 -9 35 -2 10 -28 122 -59 248 -31 127 -58 240 -61 251 l-5 21
-112 -23 c-62 -13 -120 -27 -130 -30 -10 -3 -30 -7 -44 -10 -15 -3 -138 -30
-273 -60 -135 -31 -257 -57 -271 -60 -14 -2 -74 -16 -135 -30 -145 -35 -165
-37 -165 -24 0 14 -29 79 -85 190 -271 541 -746 952 -1320 1145 -77 26 -243
67 -315 79 -19 3 -46 8 -60 10 -74 14 -132 18 -306 21 -106 2 -193 2 -195 1z
m446 -670 c125 -24 125 -24 225 -57 530 -175 932 -602 1074 -1143 24 -91 31
-132 46 -256 7 -67 5 -300 -4 -358 -3 -18 -8 -51 -11 -74 -34 -225 -153 -502
-302 -702 -154 -206 -358 -376 -585 -489 -121 -60 -138 -64 -138 -38 0 32 -45
190 -78 271 -158 396 -492 701 -907 831 -34 10 -72 20 -85 23 -14 2 -27 5 -30
6 -3 1 -9 3 -15 4 -5 1 -28 5 -50 9 -77 14 -121 17 -235 18 -232 1 -430 -47
-651 -157 l-87 -42 -21 71 c-52 176 -66 287 -65 502 2 236 56 468 158 676 64
130 72 143 186 303 51 70 194 211 290 285 236 181 504 291 800 330 98 13 393
5 485 -13z m-889 -2380 c257 -55 457 -185 619 -401 65 -87 108 -171 144 -283
38 -115 46 -168 29 -174 -46 -17 -386 -11 -441 7 -6 2 -30 7 -52 10 -81 12
-224 54 -315 93 -221 95 -378 199 -535 357 -103 103 -212 243 -199 255 37 36
243 120 330 135 22 4 59 10 84 14 66 12 255 5 336 -13z m-1103 -753 c243 -265
486 -441 800 -579 268 -118 614 -189 904 -187 52 1 71 -2 66 -11 -28 -50 -102
-142 -159 -198 -65 -63 -174 -148 -190 -148 -4 0 -15 -6 -23 -14 -24 -20 -177
-82 -246 -100 -437 -111 -897 77 -1132 464 -22 36 -40 68 -41 73 -1 4 -8 20
-15 35 -18 35 -53 143 -66 203 -34 156 -29 334 15 490 13 47 19 57 26 44 5 -9
33 -41 61 -72z"/>
<path d="M13829 14086 c-2 -3 -16 -7 -29 -10 -14 -2 -47 -10 -75 -16 -27 -6
-61 -14 -74 -16 -31 -6 -242 -53 -716 -159 -214 -48 -395 -88 -402 -89 -7 -1
-15 -5 -19 -8 -3 -4 11 -73 31 -155 20 -81 38 -155 40 -163 2 -8 8 -33 13 -55
6 -22 13 -51 16 -65 18 -91 49 -199 55 -195 6 3 144 35 220 50 9 2 57 12 106
24 50 11 185 41 300 67 116 25 217 48 225 50 8 2 69 15 135 29 66 15 127 28
135 30 8 2 49 11 90 20 41 9 82 18 90 20 8 2 20 4 25 4 38 4 37 16 -4 187 -42
174 -51 210 -52 219 0 2 -5 19 -10 37 -5 18 -12 44 -14 58 -25 119 -31 135
-56 138 -14 2 -27 1 -30 -2z"/>
<path d="M2237 12544 c-1 -1 -38 -5 -82 -8 -522 -40 -1031 -337 -1338 -781
-140 -202 -230 -409 -283 -650 -35 -159 -43 -239 -39 -430 3 -172 19 -297 55
-428 136 -508 462 -915 932 -1165 73 -39 196 -92 212 -92 5 0 22 -7 39 -15 48
-21 219 -63 337 -81 98 -14 385 -22 436 -10 12 2 45 7 75 11 558 68 1090 442
1363 956 79 148 162 384 181 514 12 81 -6 75 213 76 162 0 363 3 645 8 l38 1
-5 133 c-2 72 -5 164 -5 203 l-1 71 -297 -4 c-164 -2 -352 -5 -418 -7 -66 -1
-126 0 -132 2 -7 2 -13 19 -13 36 0 18 -4 57 -10 87 -5 30 -12 70 -15 89 -19
111 -62 251 -118 380 -175 405 -488 731 -882 920 -208 99 -386 151 -615 176
-46 6 -268 12 -273 8z m283 -419 c358 -53 673 -230 909 -510 49 -58 133 -189
174 -271 38 -75 100 -246 111 -304 3 -19 9 -46 12 -60 3 -14 8 -43 12 -65 8
-54 8 -360 -1 -410 -3 -22 -9 -56 -13 -75 -11 -66 -56 -205 -89 -283 -147
-339 -423 -612 -760 -752 -190 -79 -362 -111 -585 -108 -506 5 -988 305 -1230
764 -70 134 -127 311 -146 454 -3 22 -7 51 -9 65 -5 33 -6 238 -1 270 2 14 7
52 11 85 23 182 100 385 213 560 63 99 112 157 214 256 213 206 480 337 785
383 88 13 307 14 393 1z"/>
<path d="M11920 9518 c-74 -69 -270 -251 -284 -263 -7 -5 -39 -35 -72 -66 -59
-56 -60 -57 -43 -78 16 -20 100 -113 205 -230 23 -25 104 -116 179 -201 76
-85 147 -164 159 -176 11 -12 40 -43 62 -70 23 -27 52 -60 65 -75 13 -14 56
-61 94 -104 39 -44 83 -93 98 -109 15 -15 27 -32 25 -36 -2 -5 -30 -37 -63
-72 -33 -35 -76 -83 -95 -108 -19 -24 -40 -48 -45 -54 -28 -29 -108 -141 -167
-231 -97 -149 -176 -299 -262 -495 -76 -175 -170 -532 -191 -730 -4 -36 -10
-74 -12 -85 -12 -50 -10 -487 3 -605 26 -237 98 -546 163 -705 5 -11 21 -51
36 -90 42 -106 155 -329 217 -430 151 -244 368 -502 558 -665 14 -12 38 -33
53 -47 135 -119 374 -276 573 -376 176 -89 432 -187 579 -222 17 -4 37 -9 45
-11 51 -13 158 -35 217 -44 37 -6 79 -13 93 -15 153 -27 652 -26 785 1 11 2
38 7 60 10 342 44 773 204 1093 405 791 497 1291 1305 1381 2234 9 88 7 491
-2 550 -3 17 -8 57 -11 90 -14 126 -59 340 -96 460 -75 240 -179 480 -289 660
-23 39 -47 79 -54 90 -7 11 -15 22 -18 25 -3 3 -12 16 -19 30 -7 14 -40 61
-73 105 -277 368 -608 651 -1007 862 -314 166 -724 288 -1080 321 -152 14
-553 7 -655 -12 -11 -2 -41 -6 -66 -10 -200 -29 -450 -98 -649 -178 -130 -53
-348 -161 -434 -216 l-50 -32 -30 33 c-17 18 -85 93 -151 167 -66 74 -124 140
-130 146 -5 6 -39 44 -75 84 -36 40 -69 78 -75 84 -5 6 -84 94 -175 196 -91
102 -169 190 -175 196 -5 6 -37 41 -69 77 -33 37 -62 67 -65 67 -3 0 -31 -24
-61 -52z m2795 -1202 c71 -7 170 -21 215 -30 14 -3 36 -7 50 -10 275 -53 615
-205 860 -384 178 -130 358 -306 470 -457 25 -33 47 -62 50 -65 3 -3 31 -45
62 -93 130 -202 244 -465 294 -677 32 -132 31 -131 40 -187 3 -26 8 -56 10
-66 17 -98 23 -370 11 -509 -34 -385 -176 -780 -390 -1088 -144 -207 -325
-396 -512 -536 -225 -169 -489 -300 -752 -373 -366 -102 -712 -113 -1102 -36
-127 25 -329 91 -449 146 -46 22 -85 39 -87 39 -20 0 -372 222 -395 249 -3 3
-27 24 -55 46 -52 42 -205 192 -265 260 -58 65 -173 224 -223 308 -68 111
-119 216 -187 382 -36 87 -93 295 -111 403 -10 66 -12 80 -27 212 -13 114 -6
390 13 500 2 14 6 41 9 60 62 433 298 898 623 1226 128 129 153 151 258 230
338 253 758 416 1162 450 43 4 79 7 80 8 6 5 287 -2 348 -8z"/>
<path d="M6387 8588 c-21 -40 -53 -100 -71 -133 -18 -33 -52 -96 -76 -140 -33
-61 -208 -384 -226 -415 -3 -7 44 -33 229 -127 70 -36 130 -64 132 -61 3 2 59
105 126 229 66 123 137 253 157 289 19 36 46 85 59 109 12 24 27 49 31 55 4 6
15 27 24 47 l17 37 -47 24 c-26 14 -56 30 -67 36 -11 6 -27 13 -35 16 -8 3
-55 28 -105 55 -49 28 -95 50 -100 50 -6 1 -28 -32 -48 -71z"/>
<path d="M5794 7493 c-81 -150 -144 -264 -150 -272 -2 -2 -19 4 -38 13 -42 20
-172 54 -241 63 -27 4 -102 6 -165 6 -360 -5 -691 -211 -868 -543 -37 -70 -86
-204 -96 -268 -23 -133 -25 -211 -10 -332 57 -445 395 -796 839 -874 74 -12
270 -14 335 -2 379 68 679 324 799 681 40 118 46 164 46 325 0 156 -6 193 -45
312 -45 133 -110 250 -191 343 l-30 34 42 78 c23 43 63 116 89 163 26 47 52
94 58 106 10 20 3 25 -111 84 -67 35 -145 76 -174 91 -29 16 -56 29 -61 29 -4
0 -17 -17 -28 -37z m-404 -613 c270 -76 447 -301 455 -580 1 -59 -18 -180 -35
-217 -5 -13 -15 -35 -22 -50 -60 -135 -193 -260 -334 -312 -81 -31 -100 -34
-219 -35 -130 -1 -212 20 -313 81 -260 157 -364 470 -251 755 109 277 432 438
719 358z"/>
</g>
</svg>
